# xmcd CD database file
#
# Track frame offsets:
#	150
#	14337
#	26048
#	42333
#	58609
#	69509
#	89307
#	112860
#	131841
#	147822
#
# Disc length: 2279 seconds
#
# Revision: 0
# Processed by: cddbd v1.5.1PL0 Copyright (c) Steve Scherf et al.
# Submitted via: CDex 1.40Release
#
DISCID=8508e50a
DTITLE=Alan Subola - Powderhorn Park
DYEAR=2003
DGENRE=Country
TTITLE0=One Hit Wonder
TTITLE1=Too Gone For Too Long
TTITLE2=The Ballad of Kurt
TTITLE3=Ten O'Clock and All's Well
TTITLE4=Lil Red Caboose
TTITLE5=Champagne, Wine and Cigarettes
TTITLE6=Nobody's Girl
TTITLE7=You Smell Like My Ex
TTITLE8=Out With The In Crowd
TTITLE9=When I Get You Home
EXTD=YEAR: 2003 ID3G: 2
EXTT0=
EXTT1=
EXTT2=
EXTT3=
EXTT4=
EXTT5=
EXTT6=
EXTT7=
EXTT8=
EXTT9=
PLAYORDER=
